# xmcd
#
# Track frame offsets: 
#        150
#        17118
#        30552
#        44675
#        63331
#        78372
#        96914
#        109287
#        124606
#        140088
#        153982
#        169595
#
# Disc length: 2518 seconds
#
# Revision: 0
# Processed by: cddbd v1.5.2PL0 Copyright (c) Steve Scherf et al.
# Submitted via: ExactAudioCopy v0.99pb5
#
DISCID=9d09d40c
DTITLE=Jon Wolfe - It All Happened In A Honky Tonk
DYEAR=2010
DGENRE=Country
TTITLE0=It All Happened In A Honky Tonk
TTITLE1=Let A Country Boy Love You
TTITLE2=Sweet Little Song And Dance
TTITLE3=The Only Time You Call
TTITLE4=I Don't Dance
TTITLE5=That Girl In Texas
TTITLE6=His New Baby
TTITLE7=You Might Have Told Me
TTITLE8=Two Out Of Seven
TTITLE9=Something To See
TTITLE10=Play Me Something I Can Drink To
TTITLE11=If She's Looking For Love
EXTD=
EXTT0=
EXTT1=
EXTT2=
EXTT3=
EXTT4=
EXTT5=
EXTT6=
EXTT7=
EXTT8=
EXTT9=
EXTT10=
EXTT11=
PLAYORDER=
